<?xml version="1.0" encoding="UTF-8" standalone="no"?>
<!DOCTYPE svg PUBLIC "-//W3C//DTD SVG 1.1//EN" "http://www.w3.org/Graphics/SVG/1.1/DTD/svg11.dtd">
<svg width="100%" height="100%" viewBox="0 0 450 300" version="1.1" xmlns="http://www.w3.org/2000/svg" xmlns:xlink="http://www.w3.org/1999/xlink" xml:space="preserve" xmlns:serif="http://www.serif.com/" style="fill-rule:evenodd;clip-rule:evenodd;stroke-linejoin:round;stroke-miterlimit:2;">
    <g transform="matrix(1.171843,0,0,1.171843,227.306695,15.568483)">
        <path d="M22.486,165.779C4.457,148.053 -6.731,123.39 -6.731,96.134C-6.731,42.226 37.036,-1.542 90.945,-1.542C144.853,-1.542 188.62,42.226 188.62,96.134C188.62,150.043 144.853,193.81 90.945,193.81C80.074,193.81 69.615,192.03 59.845,188.747L17.69,216.671L22.486,165.779ZM78.118,156.246C82.246,156.7 85.737,155.835 88.594,153.651C91.45,151.467 93.095,148.408 93.528,144.475C93.963,140.517 93.025,137.162 90.712,134.408C88.399,131.655 85.179,130.051 81.052,129.597C76.953,129.145 73.462,130.01 70.58,132.192C67.698,134.374 66.039,137.443 65.603,141.401C65.17,145.334 66.123,148.679 68.462,151.435C70.8,154.191 74.019,155.795 78.118,156.246ZM71.618,117.531L92.703,119.852L92.906,118.009C93.323,114.218 94.131,111.165 95.329,108.852C96.528,106.538 98.213,104.589 100.384,103.005C102.555,101.421 105.25,99.885 108.467,98.397C114.19,95.809 118.878,92.454 122.533,88.333C126.188,84.212 128.383,78.807 129.12,72.12C129.85,65.488 128.837,59.629 126.081,54.543C123.325,49.456 119.197,45.341 113.699,42.198C108.2,39.055 101.672,37.067 94.116,36.235C87.274,35.482 80.869,36.019 74.902,37.845C68.934,39.672 63.953,42.873 59.961,47.45C55.968,52.027 53.494,58.095 52.54,65.655L75.224,68.152C75.72,64.976 76.805,62.386 78.479,60.382C80.152,58.379 82.181,56.951 84.567,56.099C86.953,55.247 89.409,54.96 91.937,55.238C94.599,55.531 96.95,56.354 98.99,57.707C101.03,59.06 102.581,60.799 103.642,62.923C104.704,65.048 105.084,67.479 104.782,70.217C104.361,74.044 102.801,77.169 100.102,79.593C97.403,82.017 94.155,84.167 90.358,86.045C86.917,87.671 83.951,89.495 81.461,91.517C78.97,93.538 76.926,96.396 75.327,100.089C73.728,103.782 72.56,108.982 71.821,115.688L71.618,117.531Z"/>
    </g>
    <g transform="matrix(0.970669,0,0,0.970669,17.856424,81.347402)">
        <path d="M119.245,189.64C110.286,192.352 100.784,193.81 90.945,193.81C37.036,193.81 -6.731,150.043 -6.731,96.134C-6.731,42.226 37.036,-1.542 90.945,-1.542C144.853,-1.542 188.62,42.226 188.62,96.134C188.62,126.835 174.425,154.247 152.246,172.159L153.413,211.082L119.245,189.64ZM80.501,117.322L102.571,116.658L101.899,36.049L76.356,36.818L80.501,117.322ZM92.761,155.835C96.912,155.71 100.25,154.367 102.773,151.807C105.297,149.246 106.499,145.988 106.38,142.032C106.26,138.053 104.864,134.861 102.19,132.456C99.517,130.052 96.105,128.912 91.954,129.037C87.832,129.161 84.495,130.504 81.945,133.066C79.395,135.628 78.18,138.899 78.3,142.878C78.419,146.834 79.829,150.013 82.528,152.417C85.228,154.82 88.639,155.959 92.761,155.835Z" style="fill:rgb(56,56,56);"/>
    </g>
</svg>
