<?xml version="1.0" encoding="UTF-8" standalone="no"?><!DOCTYPE svg PUBLIC "-//W3C//DTD SVG 1.1//EN" "http://www.w3.org/Graphics/SVG/1.1/DTD/svg11.dtd"><svg width="100%" height="100%" viewBox="0 0 50 50" version="1.1" xmlns="http://www.w3.org/2000/svg" xmlns:xlink="http://www.w3.org/1999/xlink" xml:space="preserve" xmlns:serif="http://www.serif.com/" style="fill-rule:evenodd;clip-rule:evenodd;stroke-linejoin:round;stroke-miterlimit:2;"><g><path d="M24.479,19.035c-0.067,0 -0.133,0.004 -0.199,0.005l-0.028,-1.838c0.075,-0.002 0.151,-0.003 0.227,-0.003c4.521,0 8.198,3.678 8.198,8.199c0,0.068 -0.001,0.138 -0.003,0.206l-1.837,-0.047c0.002,-0.052 0.004,-0.105 0.004,-0.158c0,-3.509 -2.854,-6.364 -6.362,-6.364Zm0,-4.956c-0.093,0 -0.184,0.002 -0.276,0.004l-0.029,-1.835c0.102,-0.002 0.203,-0.004 0.305,-0.004c7.254,0 13.155,5.901 13.155,13.155c0,0.111 -0.001,0.222 -0.004,0.332l-1.834,-0.047c0.002,-0.095 0.004,-0.191 0.004,-0.285c0,-6.242 -5.078,-11.32 -11.319,-11.32Zm0,-4.897c-0.117,0 -0.235,0.002 -0.352,0.004l-0.029,-1.835c0.127,-0.003 0.254,-0.005 0.38,-0.005c9.953,0 18.053,8.098 18.053,18.053c0,0.152 -0.002,0.305 -0.007,0.458l-1.834,-0.047c0.003,-0.136 0.005,-0.273 0.005,-0.41c0,-8.942 -7.275,-16.217 -16.217,-16.217Zm18.463,25.324c5.871,4.945 1.155,8.12 -1.512,10.724c-3.131,2.927 -14.364,-0.171 -25.498,-11.572c-10.933,-11.464 -13.565,-22.83 -10.499,-25.824c2.667,-2.604 6.018,-7.177 10.69,-1.06c4.801,6.121 2.345,7.737 -0.522,10.407c-1.865,1.821 2.028,6.744 6.065,11.007c4.103,4.201 8.798,8.344 10.797,6.392c2.735,-2.672 4.475,-5.021 10.479,-0.074Z" style="fill:#1cb03a;"/></g></svg>