<?xml version="1.0" encoding="UTF-8" standalone="no"?>
<!DOCTYPE svg PUBLIC "-//W3C//DTD SVG 1.1//EN" "http://www.w3.org/Graphics/SVG/1.1/DTD/svg11.dtd">
<svg width="100%" height="100%" viewBox="0 0 250 50" version="1.1" xmlns="http://www.w3.org/2000/svg" xmlns:xlink="http://www.w3.org/1999/xlink" xml:space="preserve" xmlns:serif="http://www.serif.com/" style="fill-rule:evenodd;clip-rule:evenodd;stroke-linejoin:round;stroke-miterlimit:2;">
    <path d="M25,2.985L31.271,16.369L45.938,18.197L35.146,28.297L37.94,42.811L25,35.668L12.06,42.811L14.854,28.297L4.062,18.197L18.729,16.369L25,2.985Z"/>
    <g transform="matrix(1,0,0,1,50,0)">
        <path d="M25,2.985L31.271,16.369L45.938,18.197L35.146,28.297L37.94,42.811L25,35.668L12.06,42.811L14.854,28.297L4.062,18.197L18.729,16.369L25,2.985Z"/>
    </g>
    <g transform="matrix(1,0,0,1,100,0)">
        <path d="M25,2.985L31.271,16.369L45.938,18.197L35.146,28.297L37.94,42.811L25,35.668L12.06,42.811L14.854,28.297L4.062,18.197L18.729,16.369L25,2.985Z"/>
    </g>
    <g transform="matrix(1,0,0,1,150,0)">
        <path d="M25,2.985L31.271,16.369L45.938,18.197L35.146,28.297L37.94,42.811L25,35.668L12.06,42.811L14.854,28.297L4.062,18.197L18.729,16.369L25,2.985Z"/>
    </g>
    <g transform="matrix(1,0,0,1,200,0)">
        <path d="M25,2.985L31.271,16.369L45.938,18.197L35.146,28.297L37.94,42.811L25,35.668L12.06,42.811L14.854,28.297L4.062,18.197L18.729,16.369L25,2.985Z"/>
    </g>
</svg>
