<?xml version="1.0" encoding="UTF-8" standalone="no"?>
<!DOCTYPE svg PUBLIC "-//W3C//DTD SVG 1.1//EN" "http://www.w3.org/Graphics/SVG/1.1/DTD/svg11.dtd">
<svg width="100%" height="100%" viewBox="0 0 50 50" version="1.1" xmlns="http://www.w3.org/2000/svg" xmlns:xlink="http://www.w3.org/1999/xlink" xml:space="preserve" xmlns:serif="http://www.serif.com/" style="fill-rule:evenodd;clip-rule:evenodd;stroke-linejoin:round;stroke-miterlimit:2;">
    <g transform="matrix(1.908465,0,0,1.908465,2.098417,2.098417)">
        <path d="M20.101,5C21.747,5 23.101,6.354 23.101,8L23.101,9L0.899,9L0.899,8C0.899,6.354 2.253,5 3.899,5L6,5L6,3C6,2.451 6.451,2 7,2C7.549,2 8,2.451 8,3L8,5L16,5L16,3C16,2.451 16.451,2 17,2C17.549,2 18,2.451 18,3L18,5L20.101,5ZM0.899,19L0.899,11L23.101,11L23.101,19C23.101,20.646 21.747,22 20.101,22L3.899,22C2.253,22 0.899,20.646 0.899,19Z" style="fill:rgb(28,176,58);"/>
    </g>
</svg>
